{"glyphs":{":":{"x_min":0,"x_max":286,"ha":286,"o":"m 178 403 q 153 403 138 418 q 122 432 122 458 q 122 501 146 520 q 169 540 194 540 q 219 540 234 526 q 250 512 250 487 q 250 443 228 423 q 206 403 178 403 z m 88 -8 q 63 -8 48 6 q 32 21 32 47 q 32 90 56 110 q 79 129 104 129 q 129 129 144 116 q 160 102 160 76 q 160 32 138 12 q 116 -8 88 -8 z"},"$":{"x_min":0,"x_max":559,"ha":559,"o":"m 176 -79 l 201 37 q 116 43 70 81 q 24 119 24 172 q 24 202 38 220 q 51 238 70 246 q 88 254 101 254 q 101 188 130 143 q 160 98 211 87 l 263 332 q 204 362 168 402 q 131 442 131 503 q 131 564 159 603 q 187 642 234 662 q 281 682 339 684 l 355 760 l 405 760 l 389 684 q 456 679 494 653 q 533 627 533 584 q 533 553 514 534 q 494 515 452 515 q 452 540 446 566 q 440 592 424 612 q 409 632 379 639 l 328 399 l 339 393 q 406 357 442 321 q 478 285 478 229 q 478 168 448 126 q 417 85 366 62 q 314 39 250 36 l 226 -79 z m 283 422 l 329 640 q 282 633 253 602 q 224 570 224 517 q 224 486 238 464 q 252 442 283 422 z m 261 85 q 320 90 352 124 q 383 159 383 207 q 383 242 364 266 q 346 290 309 310 z"},"?":{"x_min":0,"x_max":500,"ha":500,"o":"m 193 201 l 221 349 q 312 383 368 434 q 424 486 424 566 q 424 618 396 646 q 369 674 327 674 q 285 674 260 654 q 235 635 222 602 q 209 570 203 532 q 131 532 131 592 q 131 627 155 657 q 179 687 224 706 q 270 724 333 724 q 420 724 471 684 q 522 644 522 558 q 522 500 490 455 q 457 410 402 376 q 346 342 276 317 l 248 201 z m 192 -8 q 167 -8 152 6 q 136 21 136 47 q 136 90 160 110 q 183 129 208 129 q 233 129 248 116 q 264 102 264 76 q 264 32 242 12 q 220 -8 192 -8 z"},"<":{"x_min":0,"x_max":559,"ha":559,"o":"m 494 110 l 65 340 l 65 375 l 494 606 l 494 539 l 158 357 l 494 177 z"},"'":{"x_min":0,"x_max":220,"ha":220,"o":"m 127 479 l 147 714 l 253 714 l 173 479 z"},"=":{"x_min":0,"x_max":559,"ha":559,"o":"m 65 426 l 65 485 l 494 485 l 494 426 z m 65 229 l 65 288 l 494 288 l 494 229 z"},"a":{"x_min":0,"x_max":579,"ha":579,"o":"m 172 -10 q 128 -10 99 14 q 70 38 56 80 q 43 121 43 173 q 43 220 56 272 q 68 323 93 372 q 118 420 154 460 q 190 499 237 522 q 284 546 341 546 q 377 546 408 536 q 438 526 458 510 l 502 535 l 534 535 l 466 215 q 464 204 460 183 q 456 162 454 140 q 451 118 451 104 q 451 53 484 53 q 500 53 518 60 q 537 68 556 79 l 574 50 q 560 37 536 23 q 512 9 485 0 q 458 -10 433 -10 q 397 -10 376 12 q 355 34 355 73 q 355 93 358 110 q 360 126 365 151 l 359 151 q 324 74 278 32 q 231 -10 172 -10 z m 208 53 q 234 53 262 73 q 289 93 314 127 q 338 161 357 203 q 376 245 385 288 l 422 465 q 411 483 390 492 q 369 501 346 501 q 306 501 274 478 q 242 456 218 419 q 194 382 178 338 q 161 294 153 250 q 145 205 145 169 q 145 107 163 80 q 181 53 208 53 z"},"L":{"x_min":0,"x_max":623,"ha":623,"o":"m -20 0 l -11 42 l 2 42 q 35 42 62 54 q 88 67 98 114 l 202 604 q 206 620 206 632 q 206 658 186 665 q 166 672 134 672 l 121 672 l 130 714 l 421 714 l 412 672 l 399 672 q 366 672 340 660 q 313 649 303 604 l 185 50 l 382 50 q 428 50 453 79 q 478 108 489 140 l 515 215 l 567 215 l 515 0 z"},"3":{"x_min":0,"x_max":559,"ha":559,"o":"m 191 -10 q 120 -10 77 5 q 34 20 16 44 q -3 68 -3 95 q -3 130 20 150 q 42 169 73 169 q 73 138 86 110 q 98 82 126 64 q 153 45 198 45 q 242 45 280 64 q 317 83 339 120 q 361 158 361 214 q 361 276 324 310 q 287 344 220 344 l 177 344 l 187 395 l 219 395 q 275 395 319 418 q 363 442 388 484 q 414 526 414 583 q 414 623 394 648 q 373 674 329 674 q 284 674 256 653 q 227 632 212 598 q 196 564 187 525 q 156 525 134 538 q 113 552 113 589 q 113 630 142 660 q 172 691 222 708 q 272 724 333 724 q 416 724 466 686 q 517 649 517 581 q 517 534 494 492 q 472 450 428 419 q 383 388 316 376 q 385 368 426 329 q 466 290 466 225 q 466 159 441 114 q 416 68 375 41 q 334 14 286 2 q 238 -10 191 -10 z"},";":{"x_min":0,"x_max":286,"ha":286,"o":"m 178 403 q 153 403 138 418 q 122 432 122 458 q 122 501 146 520 q 169 540 194 540 q 219 540 234 526 q 250 512 250 487 q 250 443 228 423 q 206 403 178 403 z m -8 -146 l -4 -104 q 98 -81 98 -20 q 98 -6 88 2 q 78 10 66 18 q 53 26 43 38 q 33 49 33 69 q 33 98 52 113 q 70 128 95 128 q 126 128 150 106 q 173 85 173 46 q 173 -22 129 -74 q 85 -127 -8 -146 z"},"J":{"x_min":0,"x_max":357,"ha":357,"o":"m -73 -240 q -100 -240 -118 -237 q -137 -234 -155 -229 l -141 -184 q -128 -188 -110 -190 q -91 -193 -76 -193 q -42 -193 -15 -176 q 12 -160 32 -120 q 52 -80 67 -9 l 197 604 q 201 620 201 632 q 201 658 180 665 q 160 672 129 672 l 116 672 l 125 714 l 416 714 l 407 672 l 394 672 q 360 672 334 660 q 307 647 297 600 l 167 -8 q 142 -126 86 -183 q 29 -240 -73 -240 z"},"V":{"x_min":0,"x_max":675,"ha":675,"o":"m 240 0 l 155 619 q 150 650 137 661 q 124 672 95 672 l 82 672 l 91 714 l 363 714 l 355 672 l 332 672 q 300 672 280 658 q 260 645 260 621 q 260 613 260 604 q 261 594 262 587 l 302 262 q 307 218 310 176 q 312 134 312 98 q 328 134 348 175 q 367 216 393 262 l 571 580 q 590 615 590 636 q 590 672 534 672 l 511 672 l 519 714 l 766 714 l 757 672 l 738 672 q 718 672 704 666 q 691 660 678 643 q 664 626 646 594 l 313 0 z"},"\"":{"x_min":0,"x_max":408,"ha":408,"o":"m 131 479 l 151 714 l 257 714 l 177 479 z m 319 479 l 339 714 l 445 714 l 365 479 z"},"7":{"x_min":0,"x_max":559,"ha":559,"o":"m 108 0 l 478 634 l 215 634 q 160 634 146 583 l 132 533 l 90 533 l 133 714 l 580 714 l 574 685 l 183 0 z"},"S":{"x_min":0,"x_max":544,"ha":544,"o":"m 229 -10 q 156 -10 106 10 q 57 29 32 62 q 7 94 7 133 q 7 171 31 190 q 55 209 84 209 q 84 163 100 124 q 117 86 150 62 q 184 39 236 39 q 306 39 347 74 q 388 109 388 168 q 388 198 379 222 q 370 246 343 270 q 316 294 262 325 q 199 361 160 408 q 120 455 120 531 q 120 588 149 632 q 178 675 232 700 q 287 724 363 724 q 450 724 502 694 q 553 664 553 616 q 553 585 532 566 q 511 547 465 547 q 465 574 456 604 q 447 633 424 654 q 400 674 355 674 q 320 674 289 660 q 258 647 238 619 q 219 591 219 548 q 219 511 232 486 q 246 461 274 440 q 302 419 343 395 q 418 352 454 306 q 491 260 491 200 q 491 100 421 45 q 351 -10 229 -10 z"},"}":{"x_min":0,"x_max":428,"ha":428,"o":"m -50 -128 l -41 -85 l -11 -85 q 33 -85 58 -58 q 83 -31 94 20 l 131 193 q 142 242 176 274 q 209 306 268 316 l 268 320 q 179 335 179 410 q 179 418 180 426 q 182 433 183 441 l 220 612 q 222 624 224 634 q 225 645 225 654 q 225 717 160 717 l 130 717 l 139 760 l 205 760 q 264 760 294 734 q 324 708 324 659 q 324 649 322 638 q 321 628 319 617 l 282 443 q 278 427 278 411 q 278 370 306 355 q 335 340 377 338 l 368 296 q 318 294 280 273 q 241 252 228 190 l 191 16 q 182 -28 165 -60 q 148 -93 114 -110 q 80 -128 16 -128 z"},"Z":{"x_min":0,"x_max":605,"ha":605,"o":"m -17 0 l -9 40 l 494 664 l 261 664 q 216 664 194 640 q 172 615 161 582 l 147 539 l 95 539 l 137 714 l 631 714 l 623 673 l 119 50 l 386 50 q 432 50 454 74 q 476 99 487 132 l 501 175 l 553 175 l 511 0 z"},"x":{"x_min":0,"x_max":546,"ha":546,"o":"m -20 0 l -9 42 l 4 42 q 23 42 38 47 q 52 52 68 67 q 84 82 108 111 l 236 266 l 171 422 q 153 465 140 480 q 128 494 99 494 l 86 494 l 94 536 l 227 536 l 303 334 l 436 536 l 559 536 l 548 494 l 535 494 q 516 494 501 488 q 486 482 470 466 q 454 451 431 422 l 326 287 l 395 114 q 411 70 424 56 q 438 42 467 42 l 480 42 l 472 0 l 338 0 l 257 220 l 107 0 z"},")":{"x_min":0,"x_max":346,"ha":346,"o":"m -49 -136 l -39 -91 q 24 -57 70 -2 q 115 54 144 121 q 174 188 192 256 q 209 324 216 384 q 223 444 223 485 q 223 549 202 609 q 182 669 130 706 l 140 752 q 234 712 276 627 q 317 542 317 438 q 317 347 294 256 q 272 164 226 84 q 181 4 112 -54 q 44 -112 -49 -136 z"},"&":{"x_min":0,"x_max":742,"ha":742,"o":"m 254 -10 q 180 -10 131 16 q 82 41 58 83 q 35 125 35 177 q 35 242 64 285 q 92 328 140 356 q 188 384 245 405 q 222 444 210 480 q 197 517 197 552 q 197 638 253 681 q 309 724 410 724 q 498 724 538 686 q 579 649 579 594 q 579 538 554 504 q 530 471 482 448 q 433 424 361 397 l 501 205 q 524 247 540 292 q 555 338 564 382 l 572 421 l 752 421 l 743 379 l 734 379 q 700 379 669 368 q 638 357 615 311 q 598 277 579 238 q 560 198 535 159 l 590 84 q 606 62 627 52 q 648 42 688 42 l 697 42 l 688 0 l 535 0 l 475 83 q 435 42 382 16 q 328 -10 254 -10 z m 333 437 q 389 458 423 478 q 457 499 472 524 q 488 550 488 587 q 488 624 466 650 q 444 675 403 675 q 351 675 322 646 q 293 618 293 559 q 293 531 302 502 q 312 472 333 437 z m 264 46 q 321 46 366 68 q 410 90 444 126 l 274 362 q 198 327 166 286 q 134 246 134 179 q 134 122 168 84 q 202 46 264 46 z"},"_":{"x_min":0,"x_max":459,"ha":459,"o":"m -91 -142 l -78 -83 l 390 -83 l 377 -142 z"},"v":{"x_min":0,"x_max":538,"ha":538,"o":"m 166 -9 l 96 441 q 91 472 74 483 q 56 494 27 494 l 17 494 l 25 536 l 175 536 l 221 240 q 226 206 230 172 q 235 137 238 108 q 242 80 244 63 l 247 63 q 283 98 316 141 q 350 184 376 228 q 401 273 416 314 q 431 355 431 385 q 431 420 414 440 q 397 461 369 461 q 369 502 391 522 q 413 541 437 541 q 468 541 486 520 q 505 498 505 448 q 505 389 480 325 q 454 261 414 200 q 375 138 332 86 q 290 35 256 1 z"},"O":{"x_min":0,"x_max":742,"ha":742,"o":"m 314 -11 q 240 -11 180 20 q 121 52 86 114 q 52 176 52 266 q 52 324 68 387 q 84 450 116 510 q 149 570 197 618 q 245 667 308 696 q 372 725 452 725 q 521 725 580 696 q 639 667 675 606 q 711 546 711 450 q 711 395 696 332 q 680 269 648 208 q 617 148 570 98 q 522 48 458 18 q 394 -11 314 -11 z m 320 44 q 378 44 424 73 q 469 102 502 150 q 536 197 558 254 q 580 312 590 370 q 601 428 601 477 q 601 578 556 624 q 512 671 444 671 q 386 671 340 642 q 294 613 260 566 q 227 518 205 460 q 183 403 172 345 q 161 287 161 238 q 161 170 182 127 q 203 84 240 64 q 276 44 320 44 z"},"(":{"x_min":0,"x_max":346,"ha":346,"o":"m 219 -128 q 125 -88 84 -3 q 42 82 42 186 q 42 277 64 368 q 87 460 132 540 q 178 620 246 678 q 315 736 408 760 l 398 715 q 335 681 290 626 q 244 570 214 503 q 185 436 168 368 q 150 300 143 240 q 136 180 136 139 q 136 75 156 15 q 176 -45 229 -82 z"},"C":{"x_min":0,"x_max":627,"ha":627,"o":"m 328 -10 q 198 -10 125 60 q 52 130 52 258 q 52 347 81 430 q 110 514 164 580 q 219 646 295 685 q 371 724 464 724 q 552 724 600 694 q 649 663 649 613 q 649 577 622 556 q 594 535 551 535 q 551 562 544 594 q 537 626 516 648 q 494 671 451 671 q 396 671 350 644 q 305 618 270 574 q 234 529 210 473 q 186 417 174 358 q 161 298 161 242 q 161 153 206 104 q 250 55 339 55 q 410 55 454 84 q 498 112 524 146 q 537 136 537 113 q 537 86 516 58 q 494 29 448 10 q 402 -10 328 -10 z"},"W":{"x_min":0,"x_max":1045,"ha":1045,"o":"m 214 0 l 162 619 q 159 650 145 661 q 131 672 102 672 l 89 672 l 98 714 l 370 714 l 361 672 l 338 672 q 306 672 286 658 q 266 645 266 621 q 266 613 266 604 q 267 594 268 587 l 292 267 q 296 222 298 178 q 299 134 299 98 q 316 137 336 184 q 357 230 381 278 l 591 707 l 663 707 l 696 274 q 700 224 701 178 q 702 132 701 98 q 717 134 734 174 q 752 214 776 262 l 935 580 q 944 599 949 612 q 954 626 954 636 q 954 672 898 672 l 874 672 l 882 714 l 1126 714 l 1117 672 l 1098 672 q 1069 672 1050 658 q 1031 644 1006 594 l 711 0 l 619 0 l 574 554 l 305 0 z"},"A":{"x_min":0,"x_max":705,"ha":705,"o":"m -56 0 l -48 42 l -29 42 q -10 42 4 48 q 18 54 32 71 q 45 88 64 120 l 412 714 l 490 714 l 585 95 q 590 64 602 53 q 615 42 644 42 l 657 42 l 649 0 l 377 0 l 385 42 l 408 42 q 440 42 460 56 q 480 69 480 93 q 480 101 480 110 q 479 120 478 127 l 462 239 l 200 239 l 139 134 q 120 99 120 78 q 120 42 176 42 l 199 42 l 191 0 z m 336 473 l 229 289 l 455 289 l 430 464 q 424 508 420 547 q 415 586 414 622 q 398 586 380 553 q 363 520 336 473 z"},"f":{"x_min":0,"x_max":318,"ha":318,"o":"m -82 -240 q -97 -240 -114 -238 q -130 -235 -140 -232 l -131 -186 q -123 -188 -110 -190 q -96 -193 -85 -193 q -36 -193 -8 -151 q 19 -109 41 -9 l 146 479 l 55 479 l 61 515 l 157 536 l 168 591 q 184 676 230 723 q 276 770 358 770 q 422 770 454 750 q 487 729 487 696 q 487 663 466 647 q 444 631 404 631 q 404 669 394 696 q 384 724 353 724 q 316 724 296 694 q 276 663 264 600 l 251 536 l 362 536 l 351 479 l 239 479 l 135 -8 q 116 -97 86 -148 q 56 -198 14 -219 q -28 -240 -82 -240 z"},"Q":{"x_min":0,"x_max":742,"ha":742,"o":"m 451 -226 q 379 -226 338 -197 q 297 -168 280 -118 q 262 -68 259 -6 q 199 4 152 38 q 106 72 79 130 q 52 187 52 266 q 52 324 68 387 q 84 450 116 510 q 149 570 197 618 q 245 667 308 696 q 372 725 452 725 q 521 725 580 696 q 639 667 675 606 q 711 546 711 450 q 711 398 698 340 q 684 282 656 225 q 629 168 588 119 q 547 70 492 36 q 437 3 367 -7 q 372 -99 398 -138 q 425 -177 475 -177 q 496 -177 512 -174 q 529 -172 543 -168 l 550 -210 q 531 -216 508 -221 q 486 -226 451 -226 z m 320 44 q 378 44 424 73 q 469 102 502 150 q 536 197 558 254 q 580 312 590 370 q 601 428 601 477 q 601 578 556 624 q 512 671 444 671 q 386 671 340 642 q 294 613 260 566 q 227 518 205 460 q 183 403 172 345 q 161 287 161 238 q 161 170 182 127 q 203 84 240 64 q 276 44 320 44 z"},"w":{"x_min":0,"x_max":819,"ha":819,"o":"m 449 -10 q 449 36 447 98 q 445 159 442 223 q 439 287 437 340 q 435 393 434 423 q 429 409 414 376 q 398 344 377 301 q 356 258 332 212 q 308 165 286 122 q 264 79 247 48 q 230 16 223 3 l 120 -9 l 113 422 q 112 468 94 481 q 76 494 47 494 l 37 494 l 51 536 l 201 536 q 202 466 203 386 q 204 306 204 227 q 205 148 205 80 l 209 80 q 233 121 262 175 q 290 229 320 289 q 351 349 380 410 q 408 472 431 527 l 514 531 q 517 501 520 454 q 523 406 526 350 q 528 295 530 241 q 532 187 534 142 q 535 98 535 73 l 542 73 q 576 114 609 162 q 642 210 670 258 q 697 307 714 350 q 730 394 730 427 q 730 452 718 466 q 707 480 687 487 q 690 511 706 528 q 721 546 746 546 q 771 546 785 528 q 799 509 799 471 q 799 412 768 341 q 736 270 679 186 q 622 102 548 1 z"},"-":{"x_min":0,"x_max":310,"ha":310,"o":"m 14 235 l 30 310 l 290 310 l 274 235 z"},"E":{"x_min":0,"x_max":623,"ha":623,"o":"m -21 0 l -13 42 l 0 42 q 33 42 60 53 q 87 64 97 109 l 201 600 q 204 614 204 624 q 204 656 184 664 q 163 672 134 672 l 121 672 l 130 714 l 634 714 l 602 539 l 550 539 q 550 544 552 557 q 553 570 554 582 q 555 594 555 597 q 555 625 539 644 q 523 664 484 664 l 316 664 l 259 398 l 500 398 l 490 349 l 249 349 l 185 50 l 378 50 q 425 50 452 74 q 479 99 491 132 l 507 175 l 559 175 l 515 0 z"},"s":{"x_min":0,"x_max":464,"ha":464,"o":"m 190 -10 q 115 -10 70 20 q 25 50 25 103 q 25 130 36 144 q 46 158 61 164 q 76 169 88 169 q 88 134 99 104 q 110 74 135 56 q 160 38 202 38 q 252 38 281 61 q 310 84 310 131 q 310 166 287 191 q 264 216 209 241 q 154 267 121 302 q 88 336 88 396 q 88 460 140 502 q 192 545 281 545 q 336 545 370 531 q 404 517 420 495 q 437 473 437 450 q 437 418 416 403 q 396 388 362 388 q 362 414 354 440 q 345 466 326 482 q 306 499 272 499 q 227 499 201 474 q 175 450 175 413 q 175 379 200 356 q 224 334 277 310 q 332 285 364 249 q 397 213 397 155 q 397 82 342 36 q 286 -10 190 -10 z"},">":{"x_min":0,"x_max":559,"ha":559,"o":"m 65 110 l 65 177 l 401 357 l 65 539 l 65 606 l 494 375 l 494 340 z"},"l":{"x_min":0,"x_max":304,"ha":304,"o":"m 156 -10 q 116 -10 94 18 q 73 46 73 85 q 73 106 77 135 q 81 164 86 193 q 91 222 95 242 l 177 626 q 180 640 182 653 q 183 666 183 671 q 183 701 162 710 q 142 718 113 718 l 101 718 l 110 760 l 299 760 l 183 215 q 180 204 176 183 q 173 162 170 140 q 167 118 167 104 q 167 53 200 53 q 216 53 234 60 q 253 68 272 79 l 290 50 q 268 30 231 10 q 194 -10 156 -10 z"},"8":{"x_min":0,"x_max":559,"ha":559,"o":"m 232 -10 q 126 -10 68 38 q 10 87 10 162 q 10 218 36 255 q 61 292 106 318 q 150 344 208 365 q 162 397 136 440 q 110 484 110 531 q 110 585 134 628 q 159 672 212 698 q 264 724 349 724 q 438 724 486 682 q 533 641 533 578 q 533 502 486 458 q 438 414 359 381 q 415 348 450 306 q 486 263 486 202 q 486 129 452 82 q 417 35 360 12 q 302 -10 232 -10 z m 311 405 q 386 437 415 478 q 444 518 444 571 q 444 615 419 644 q 394 674 341 674 q 280 674 243 638 q 206 603 206 542 q 206 499 232 466 q 258 434 311 405 z m 235 39 q 278 39 313 54 q 348 70 370 101 q 391 132 391 178 q 391 232 356 268 q 322 304 254 339 q 186 314 146 271 q 106 228 106 160 q 106 104 140 72 q 174 39 235 39 z"},"\\":{"x_min":0,"x_max":288,"ha":288,"o":"m 155 -121 l 113 760 l 171 760 l 214 -121 z"},"e":{"x_min":0,"x_max":493,"ha":493,"o":"m 238 -10 q 184 -10 140 13 q 96 36 70 82 q 43 127 43 197 q 43 252 62 313 q 81 374 119 427 q 157 480 212 513 q 268 546 341 546 q 404 546 439 516 q 474 485 474 431 q 474 378 436 332 q 399 287 334 259 q 268 231 184 231 l 149 231 q 148 220 148 210 q 147 199 147 189 q 147 124 175 88 q 203 53 257 53 q 305 53 342 76 q 380 99 401 125 q 411 118 411 100 q 411 78 392 52 q 374 27 336 8 q 298 -10 238 -10 z m 158 277 l 168 277 q 226 277 272 296 q 318 316 344 350 q 371 385 371 431 q 371 498 313 498 q 284 498 260 478 q 235 459 215 426 q 195 394 180 355 q 166 316 158 277 z"},"b":{"x_min":0,"x_max":562,"ha":562,"o":"m 221 -10 q 184 -10 152 1 q 121 12 104 26 l 59 -3 l 27 -3 l 159 618 q 164 638 166 652 q 168 666 168 671 q 168 701 147 710 q 126 718 98 718 l 90 718 l 99 760 l 288 760 l 240 535 q 236 516 229 490 q 222 465 215 441 q 208 417 204 403 l 209 403 q 244 470 287 508 q 330 546 392 546 q 451 546 485 500 q 519 454 519 365 q 519 304 499 238 q 479 173 440 116 q 402 60 346 25 q 291 -10 221 -10 z m 217 35 q 257 35 289 58 q 321 81 345 119 q 369 157 385 202 q 401 246 409 289 q 417 332 417 366 q 417 430 398 456 q 380 483 354 483 q 321 483 292 458 q 263 433 240 396 q 217 360 202 325 q 186 290 182 269 l 139 71 q 152 55 172 45 q 192 35 217 35 z"},"%":{"x_min":0,"x_max":896,"ha":896,"o":"m 195 281 q 136 281 101 320 q 66 359 66 440 q 66 482 78 530 q 91 579 116 623 q 142 667 182 695 q 221 723 276 723 q 346 723 378 679 q 409 635 409 564 q 409 525 396 476 q 384 428 358 384 q 332 339 292 310 q 251 281 195 281 z m 167 0 l 669 714 l 739 714 l 241 0 z m 199 322 q 230 322 254 350 q 278 377 294 418 q 310 459 318 503 q 326 547 326 580 q 326 629 314 656 q 302 683 272 683 q 240 683 216 656 q 193 628 177 587 q 161 546 153 502 q 145 458 145 425 q 145 376 157 349 q 169 322 199 322 z m 637 -8 q 578 -8 543 31 q 508 70 508 151 q 508 193 520 242 q 533 290 558 334 q 584 378 624 406 q 663 434 718 434 q 788 434 820 390 q 851 346 851 275 q 851 236 838 188 q 826 139 800 94 q 774 50 734 21 q 693 -8 637 -8 z m 641 33 q 672 33 696 60 q 720 88 736 129 q 752 170 760 214 q 768 258 768 291 q 768 340 756 367 q 744 394 714 394 q 682 394 658 366 q 635 339 619 298 q 603 257 595 213 q 587 169 587 136 q 587 87 599 60 q 611 33 641 33 z"},"m":{"x_min":0,"x_max":896,"ha":896,"o":"m 757 -10 q 713 -10 690 18 q 666 46 666 90 q 666 136 685 225 l 702 303 q 705 316 710 338 q 715 359 719 382 q 723 404 723 422 q 723 442 714 462 q 706 481 677 481 q 648 481 620 462 q 591 442 566 411 q 541 380 522 344 q 504 309 494 278 l 478 206 q 475 192 470 163 q 465 134 460 100 q 456 67 452 39 q 449 11 449 0 l 354 0 q 354 12 358 40 q 361 67 366 102 q 371 136 377 169 q 383 202 388 225 l 405 303 q 408 316 413 338 q 418 359 422 382 q 426 404 426 422 q 426 442 418 462 q 409 481 380 481 q 348 481 318 458 q 287 435 260 399 q 234 363 216 324 q 197 286 191 256 l 137 0 l 44 0 l 128 402 q 131 416 132 429 q 134 442 134 447 q 134 477 113 486 q 92 494 64 494 l 56 494 l 65 536 l 250 536 l 223 410 l 233 410 q 274 476 316 510 q 359 545 415 545 q 474 545 498 512 q 522 478 522 434 q 522 428 522 422 q 521 416 520 410 l 530 410 q 570 476 613 510 q 656 545 712 545 q 771 545 795 512 q 819 478 819 434 q 819 409 812 380 q 806 350 801 324 l 775 206 q 769 178 766 151 q 762 124 762 101 q 762 53 797 53 q 826 53 861 76 l 879 47 q 855 27 826 8 q 796 -10 757 -10 z"},"#":{"x_min":0,"x_max":559,"ha":559,"o":"m 56 0 l 115 203 l 23 203 l 30 262 l 133 262 l 191 458 l 82 458 l 88 517 l 208 517 l 265 714 l 326 714 l 268 517 l 407 517 l 465 714 l 525 714 l 467 517 l 559 517 l 553 458 l 450 458 l 393 262 l 502 262 l 495 203 l 374 203 l 315 0 l 255 0 l 314 203 l 175 203 l 116 0 z m 194 262 l 333 262 l 390 458 l 251 458 z"},",":{"x_min":0,"x_max":250,"ha":250,"o":"m -28 -146 l -24 -104 q 78 -81 78 -20 q 78 -6 68 2 q 58 10 46 18 q 33 26 23 38 q 13 49 13 69 q 13 98 32 113 q 50 128 75 128 q 106 128 130 106 q 153 85 153 46 q 153 -22 109 -74 q 65 -127 -28 -146 z"},"n":{"x_min":0,"x_max":599,"ha":599,"o":"m 460 -10 q 416 -10 392 18 q 369 46 369 90 q 369 136 388 225 l 405 303 q 408 316 413 338 q 418 359 422 382 q 426 404 426 422 q 426 442 418 462 q 409 481 380 481 q 348 481 318 458 q 287 435 260 399 q 234 363 216 324 q 197 286 191 256 l 137 0 l 44 0 l 128 402 q 131 416 132 429 q 134 442 134 447 q 134 477 113 486 q 92 494 64 494 l 56 494 l 65 536 l 250 536 l 223 410 l 233 410 q 274 476 316 510 q 359 545 415 545 q 474 545 498 512 q 522 478 522 434 q 522 409 516 380 q 509 350 504 324 l 478 206 q 472 178 468 151 q 465 124 465 101 q 465 53 500 53 q 529 53 564 76 l 582 47 q 558 27 528 8 q 499 -10 460 -10 z"},"h":{"x_min":0,"x_max":599,"ha":599,"o":"m 460 -10 q 416 -10 392 18 q 369 46 369 90 q 369 136 388 225 l 405 303 q 408 316 413 338 q 418 359 422 382 q 426 404 426 422 q 426 442 418 462 q 409 481 380 481 q 348 481 318 458 q 287 435 260 399 q 234 363 216 324 q 197 286 191 256 l 137 0 l 44 0 l 174 618 q 178 638 180 652 q 183 666 183 671 q 183 701 162 710 q 142 718 113 718 l 105 718 l 114 760 l 298 760 l 259 576 q 248 523 236 476 q 224 429 219 410 l 230 410 q 270 476 314 510 q 359 545 415 545 q 474 545 498 512 q 522 478 522 434 q 522 409 516 380 q 509 350 504 324 l 478 206 q 472 178 468 151 q 465 124 465 101 q 465 53 500 53 q 529 53 564 76 l 582 47 q 558 27 528 8 q 499 -10 460 -10 z"},"z":{"x_min":0,"x_max":511,"ha":511,"o":"m -1 0 l 7 40 l 347 479 l 220 479 q 180 479 162 458 q 145 438 126 398 l 124 394 l 82 394 l 122 536 l 472 536 l 464 495 l 123 57 l 301 57 q 336 57 354 82 q 372 107 386 139 l 396 162 l 438 162 l 399 0 z"},"B":{"x_min":0,"x_max":654,"ha":654,"o":"m -21 0 l -13 42 l 0 42 q 34 42 61 54 q 88 67 98 114 l 202 604 q 206 620 206 632 q 206 658 184 665 q 163 672 134 672 l 121 672 l 130 714 l 389 714 q 504 714 564 676 q 623 638 623 564 q 623 509 602 472 q 580 434 543 411 q 506 388 460 378 l 459 374 q 513 364 547 328 q 581 291 581 228 q 581 118 508 59 q 435 0 293 0 z m 259 399 l 336 399 q 430 399 472 438 q 514 478 514 551 q 514 664 376 664 l 316 664 z m 185 50 l 282 50 q 385 50 429 98 q 473 145 473 235 q 473 349 333 349 l 249 349 z"},"K":{"x_min":0,"x_max":700,"ha":700,"o":"m -21 0 l -13 42 l 0 42 q 34 42 61 54 q 88 67 98 114 l 202 604 q 206 620 206 632 q 206 658 186 665 q 166 672 134 672 l 121 672 l 130 714 l 421 714 l 412 672 l 399 672 q 365 672 338 660 q 312 647 302 600 l 241 324 l 499 561 q 539 598 556 618 q 574 638 574 651 q 574 664 564 668 q 555 673 530 673 l 538 714 l 759 714 l 751 673 q 716 673 680 648 q 645 622 597 579 l 415 414 l 536 122 q 552 82 574 62 q 597 42 631 42 l 634 42 l 625 0 l 611 0 q 551 0 516 8 q 482 17 463 38 q 444 58 431 93 l 334 340 l 231 268 l 198 110 q 194 94 194 82 q 194 56 214 49 q 234 42 266 42 l 279 42 l 270 0 z"},"R":{"x_min":0,"x_max":664,"ha":664,"o":"m -20 0 l -11 42 l 2 42 q 34 42 60 53 q 87 64 97 109 l 202 604 q 206 620 206 632 q 206 658 186 665 q 166 672 134 672 l 121 672 l 130 714 l 392 714 q 621 714 621 544 q 621 476 592 433 q 564 390 521 367 q 478 344 436 335 l 508 121 q 522 80 539 61 q 556 42 590 42 l 598 42 l 590 0 l 577 0 q 520 0 486 10 q 451 20 432 45 q 412 70 399 117 l 341 315 l 242 315 l 198 110 q 194 94 194 82 q 194 56 214 49 q 234 42 266 42 l 299 42 l 290 0 z m 252 362 l 329 362 q 382 362 424 380 q 466 398 490 436 q 515 475 515 538 q 515 609 483 638 q 451 666 384 666 l 316 666 z"},"T":{"x_min":0,"x_max":613,"ha":613,"o":"m 92 0 l 101 42 l 124 42 q 157 42 184 53 q 210 64 220 109 l 338 664 l 242 664 q 198 664 176 640 q 153 615 142 582 l 128 539 l 76 539 l 118 714 l 681 714 l 649 539 l 597 539 q 598 544 599 558 q 600 572 601 584 q 602 597 602 600 q 602 626 588 645 q 574 664 536 664 l 439 664 l 321 110 q 317 94 317 82 q 317 56 338 49 q 358 42 389 42 l 412 42 l 403 0 z"},"P":{"x_min":0,"x_max":620,"ha":620,"o":"m -20 0 l -11 42 l 2 42 q 35 42 62 54 q 88 67 98 114 l 202 604 q 206 620 206 632 q 206 658 186 665 q 166 672 134 672 l 121 672 l 130 714 l 386 714 q 491 714 552 665 q 614 616 614 521 q 614 483 602 441 q 590 399 558 362 q 525 325 464 302 q 404 278 308 278 l 234 278 l 198 110 q 194 94 194 82 q 194 56 214 49 q 234 42 266 42 l 299 42 l 290 0 z m 244 325 l 297 325 q 374 325 420 350 q 467 375 488 419 q 508 463 508 520 q 508 599 470 632 q 433 666 362 666 l 316 666 z"},"|":{"x_min":0,"x_max":559,"ha":559,"o":"m 249 -240 l 249 760 l 309 760 l 309 -240 z"},"t":{"x_min":0,"x_max":368,"ha":368,"o":"m 183 -10 q 74 -10 74 107 q 74 125 77 148 q 80 172 84 191 l 145 479 l 69 479 l 78 519 q 121 519 161 550 q 201 582 231 659 l 277 659 l 251 536 l 372 536 l 360 479 l 239 479 l 178 194 q 173 169 170 146 q 166 124 166 108 q 166 79 180 66 q 194 53 219 53 q 240 53 262 60 q 284 66 301 75 l 318 38 q 288 17 254 4 q 220 -10 183 -10 z"},"M":{"x_min":0,"x_max":938,"ha":938,"o":"m -20 0 l -11 42 l 2 42 q 34 42 60 53 q 87 64 97 109 l 202 604 q 206 620 206 632 q 206 658 186 665 q 166 672 134 672 l 121 672 l 130 714 l 357 714 l 442 144 l 769 714 l 992 714 l 983 672 l 970 672 q 936 672 910 660 q 883 647 873 600 l 769 110 q 765 94 765 82 q 765 56 786 49 q 806 42 837 42 l 850 42 l 841 0 l 575 0 l 584 42 l 587 42 q 619 42 640 53 q 661 64 672 105 l 786 639 l 421 0 l 367 0 l 270 639 l 158 110 q 154 94 154 82 q 154 56 174 49 q 194 42 226 42 l 239 42 l 230 0 z"},"g":{"x_min":0,"x_max":556,"ha":556,"o":"m 183 -240 q 74 -240 20 -206 q -35 -173 -35 -110 q -35 -68 -12 -39 q 12 -10 49 8 q 86 26 128 34 q 108 43 94 61 q 80 79 80 103 q 80 134 101 156 q 122 178 175 205 q 142 220 124 250 q 105 280 105 323 q 105 358 119 397 q 133 436 162 470 q 190 504 234 525 q 278 546 337 546 q 367 546 394 538 q 420 530 440 514 q 460 543 487 564 q 514 585 548 585 q 573 585 586 572 q 598 559 598 539 q 598 517 586 497 q 573 477 539 477 q 539 492 532 502 q 525 513 511 513 q 497 513 484 506 q 472 498 462 490 q 484 459 484 413 q 484 379 470 340 q 457 302 429 268 q 401 233 358 211 q 314 189 255 189 q 247 189 238 190 q 230 190 223 191 q 200 181 176 166 q 152 151 152 128 q 152 112 166 106 q 181 100 203 98 l 299 88 q 373 80 414 48 q 454 17 454 -43 q 454 -133 386 -186 q 318 -240 183 -240 z m 266 237 q 300 237 324 256 q 348 274 364 302 q 379 331 386 362 q 393 393 393 418 q 393 461 374 480 q 356 500 324 500 q 290 500 266 482 q 242 463 226 434 q 211 406 204 375 q 197 344 197 319 q 197 276 216 256 q 234 237 266 237 z m 187 -191 q 252 -191 292 -174 q 332 -158 350 -130 q 367 -103 367 -71 q 367 -39 345 -20 q 323 -2 274 3 l 177 12 q 143 8 113 -6 q 83 -19 64 -44 q 46 -68 46 -104 q 46 -142 76 -166 q 107 -191 187 -191 z"},"j":{"x_min":0,"x_max":291,"ha":291,"o":"m 225 636 q 200 636 184 650 q 169 663 169 691 q 169 722 186 742 q 202 761 229 761 q 253 761 269 748 q 285 734 285 706 q 285 667 266 652 q 247 636 225 636 z m -82 -240 q -97 -240 -114 -238 q -130 -235 -140 -232 l -131 -186 q -123 -188 -110 -190 q -96 -193 -85 -193 q -36 -193 -8 -150 q 21 -108 42 -8 l 134 426 q 137 441 137 452 q 137 479 120 486 q 104 494 76 494 l 63 494 l 72 536 l 251 536 l 136 -8 q 117 -97 86 -148 q 56 -198 14 -219 q -28 -240 -82 -240 z"},"i":{"x_min":0,"x_max":304,"ha":304,"o":"m 224 636 q 199 636 184 650 q 168 663 168 691 q 168 722 184 742 q 201 761 228 761 q 252 761 268 748 q 284 734 284 706 q 284 667 265 652 q 246 636 224 636 z m 155 -10 q 115 -10 94 18 q 72 46 72 85 q 72 106 76 135 q 80 164 85 193 q 90 222 94 242 l 133 426 q 136 441 136 452 q 136 479 120 486 q 103 494 75 494 l 62 494 l 71 536 l 250 536 l 182 215 q 180 204 176 183 q 172 162 170 140 q 167 118 167 104 q 167 53 200 53 q 216 53 234 60 q 253 68 272 79 l 290 50 q 268 30 230 10 q 192 -10 155 -10 z"},"y":{"x_min":0,"x_max":528,"ha":528,"o":"m -68 -240 q -121 -240 -162 -222 l -147 -172 q -135 -176 -118 -180 q -100 -183 -69 -183 q -20 -183 22 -166 q 63 -148 98 -120 q 133 -93 162 -62 q 190 -30 212 -1 l 80 441 q 71 471 56 482 q 40 494 11 494 l 1 494 l 9 536 l 155 536 l 233 266 q 240 240 250 204 q 259 168 266 135 q 274 102 275 85 l 278 85 q 316 142 346 202 q 377 261 395 316 q 413 372 413 417 q 413 438 402 454 q 392 471 364 471 q 364 507 384 526 q 405 545 429 545 q 460 545 478 524 q 497 503 497 461 q 497 383 449 281 q 401 179 321 57 q 272 -19 230 -75 q 189 -131 147 -168 q 105 -204 54 -222 q 2 -240 -68 -240 z"},"@":{"x_min":0,"x_max":921,"ha":921,"o":"m 432 -142 q 325 -142 242 -102 q 159 -63 112 17 q 65 97 65 218 q 65 324 99 414 q 133 505 195 572 q 257 639 342 676 q 428 714 530 714 q 642 714 717 671 q 792 628 830 555 q 868 482 868 392 q 868 296 840 225 q 813 154 768 116 q 724 77 672 77 q 628 77 598 101 q 568 125 554 168 l 549 168 q 528 129 496 103 q 465 77 414 77 q 374 77 339 96 q 304 114 283 152 q 262 190 262 248 q 262 288 276 336 q 290 385 320 429 q 351 473 400 501 q 448 529 517 529 q 549 529 572 520 q 596 511 611 499 l 651 520 l 675 520 l 624 265 q 622 258 620 238 q 617 218 617 198 q 617 163 636 146 q 654 130 678 130 q 708 130 738 161 q 767 192 787 251 q 807 310 807 395 q 807 482 771 542 q 735 602 671 632 q 607 663 524 663 q 451 663 383 632 q 315 602 261 544 q 207 487 176 405 q 144 323 144 220 q 144 109 185 40 q 226 -28 294 -59 q 362 -90 442 -90 q 524 -90 588 -64 q 652 -38 696 -7 l 719 -43 q 670 -80 597 -111 q 524 -142 432 -142 z m 431 130 q 465 130 487 148 q 509 167 522 196 q 534 224 539 255 l 577 458 q 571 472 555 480 q 539 488 521 488 q 476 488 444 461 q 413 434 393 393 q 373 352 364 309 q 355 266 355 234 q 355 182 376 156 q 397 130 431 130 z"},".":{"x_min":0,"x_max":250,"ha":250,"o":"m 82 -8 q 57 -8 42 6 q 26 20 26 43 q 26 89 50 109 q 73 129 98 129 q 123 129 138 116 q 154 102 154 80 q 154 33 132 12 q 110 -8 82 -8 z"},"p":{"x_min":0,"x_max":577,"ha":577,"o":"m -7 -240 l 126 394 q 130 414 132 428 q 135 442 135 447 q 135 477 114 486 q 94 494 65 494 l 57 494 l 66 536 l 243 536 l 219 403 l 224 403 q 244 442 270 474 q 295 507 328 526 q 362 546 407 546 q 468 546 501 500 q 534 453 534 365 q 534 322 522 272 q 510 221 486 171 q 463 121 428 80 q 392 39 344 14 q 296 -10 236 -10 q 207 -10 182 -4 q 157 2 138 13 q 138 13 136 -2 q 134 -18 130 -35 l 116 -96 q 114 -102 110 -122 q 107 -141 107 -152 q 107 -182 128 -190 q 148 -198 177 -198 l 190 -198 l 181 -240 z m 233 35 q 271 35 302 57 q 334 79 358 116 q 382 153 398 196 q 415 240 424 284 q 432 329 432 366 q 432 395 426 422 q 421 449 408 466 q 394 483 369 483 q 340 483 312 461 q 284 439 260 404 q 236 370 219 332 q 202 294 195 261 l 154 71 q 163 60 184 48 q 205 35 233 35 z"},"X":{"x_min":0,"x_max":660,"ha":660,"o":"m -49 0 l -40 42 l -36 42 q -6 42 19 58 q 44 73 82 114 l 303 355 l 196 621 q 185 650 166 661 q 146 672 118 672 l 105 672 l 114 714 l 385 714 l 376 672 l 353 672 q 306 672 306 644 q 306 634 311 620 q 316 605 324 584 l 381 439 l 506 582 q 521 599 532 616 q 544 634 544 647 q 544 672 496 672 l 493 672 l 502 714 l 721 714 l 712 672 l 703 672 q 674 672 651 655 q 628 638 590 597 l 401 388 l 521 95 q 534 64 552 53 q 571 42 590 42 l 603 42 l 594 0 l 324 0 l 333 42 l 344 42 q 374 42 391 52 q 408 62 408 77 q 408 91 404 104 q 400 118 389 146 l 324 305 l 175 139 q 158 120 146 102 q 135 83 135 69 q 135 55 148 48 q 161 42 194 42 l 197 42 l 188 0 z"},"*":{"x_min":0,"x_max":500,"ha":500,"o":"m 331 373 l 246 391 l 304 540 l 134 479 l 116 563 l 291 577 l 137 661 l 188 731 l 318 604 l 326 765 l 411 747 l 351 598 l 522 658 l 540 574 l 364 561 l 519 478 l 469 410 l 337 533 z"},"Y":{"x_min":0,"x_max":625,"ha":625,"o":"m 99 0 l 108 42 l 131 42 q 164 42 190 53 q 217 64 227 109 l 266 293 l 150 619 q 140 648 130 660 q 119 672 90 672 l 77 672 l 86 714 l 356 714 l 347 672 l 297 672 q 256 672 256 645 q 256 632 260 618 q 263 604 269 587 l 314 453 q 324 422 332 390 q 340 358 341 333 q 353 354 371 378 q 389 402 416 438 l 511 565 q 530 590 539 610 q 548 630 548 646 q 548 660 538 666 q 527 672 500 672 l 463 672 l 472 714 l 719 714 l 710 672 l 691 672 q 668 672 648 653 q 628 634 600 596 l 367 291 l 328 110 q 324 94 324 82 q 324 56 344 49 q 364 42 396 42 l 419 42 l 410 0 z"},"c":{"x_min":0,"x_max":487,"ha":487,"o":"m 238 -10 q 184 -10 140 13 q 96 36 70 82 q 43 127 43 197 q 43 252 62 313 q 81 374 119 427 q 157 480 212 513 q 268 546 341 546 q 416 546 452 516 q 487 487 487 450 q 487 422 464 401 q 441 380 398 380 q 398 428 380 463 q 361 498 321 498 q 289 498 262 476 q 235 455 214 420 q 192 386 178 344 q 163 303 155 262 q 147 221 147 189 q 147 124 175 88 q 203 53 257 53 q 310 53 345 76 q 380 99 401 125 q 411 118 411 100 q 411 78 392 52 q 374 27 336 8 q 298 -10 238 -10 z"},"!":{"x_min":0,"x_max":333,"ha":333,"o":"m 122 201 l 200 714 l 316 714 l 176 201 z m 116 -8 q 91 -8 76 6 q 60 21 60 47 q 60 90 84 110 q 107 129 132 129 q 157 129 172 116 q 188 102 188 76 q 188 32 166 12 q 144 -8 116 -8 z"},"/":{"x_min":0,"x_max":288,"ha":288,"o":"m -93 -121 l 318 760 l 381 760 l -30 -121 z"},"[":{"x_min":0,"x_max":360,"ha":360,"o":"m 5 -128 l 194 760 l 417 760 l 408 718 l 365 718 q 331 718 304 706 q 278 693 268 646 l 126 -18 q 122 -34 122 -46 q 122 -72 142 -79 q 162 -86 194 -86 l 237 -86 l 228 -128 z"},"6":{"x_min":0,"x_max":559,"ha":559,"o":"m 248 -10 q 196 -10 154 17 q 111 44 86 98 q 60 151 60 232 q 60 325 84 413 q 107 501 152 572 q 196 642 259 683 q 322 724 402 724 q 478 724 516 697 q 555 670 555 634 q 555 599 532 579 q 509 559 468 559 q 468 588 464 615 q 459 642 444 659 q 430 676 400 676 q 325 676 268 602 q 212 527 176 382 q 198 398 236 416 q 275 434 323 434 q 381 434 418 410 q 456 386 474 346 q 492 306 492 259 q 492 190 466 128 q 439 67 384 28 q 330 -10 248 -10 z m 254 45 q 296 45 327 72 q 358 100 376 147 q 393 194 393 253 q 393 316 370 350 q 347 383 303 383 q 264 383 227 364 q 190 346 165 325 q 158 287 154 256 q 151 224 151 195 q 151 117 179 81 q 207 45 254 45 z"},"r":{"x_min":0,"x_max":468,"ha":468,"o":"m 44 0 l 128 402 q 131 416 132 429 q 134 442 134 447 q 134 477 108 486 q 82 494 54 494 l 46 494 l 55 536 l 232 536 l 211 392 l 221 392 q 240 433 262 468 q 284 503 315 524 q 346 546 391 546 q 433 546 453 526 q 473 507 473 477 q 473 442 454 422 q 434 401 390 401 q 390 437 382 458 q 374 480 350 480 q 324 480 298 453 q 271 426 248 382 q 224 337 205 284 q 186 232 175 182 l 137 0 z"},"2":{"x_min":0,"x_max":559,"ha":559,"o":"m -17 0 l 4 81 l 239 293 q 306 354 342 401 q 379 448 393 489 q 407 530 407 573 q 407 618 383 646 q 359 674 315 674 q 272 674 243 653 q 214 632 197 598 q 180 563 173 523 q 142 523 122 538 q 102 553 102 587 q 102 622 128 653 q 153 684 202 704 q 251 724 320 724 q 414 724 462 685 q 509 646 509 578 q 509 532 485 487 q 461 442 414 392 q 368 343 301 282 l 76 80 l 308 80 q 354 80 374 103 q 394 126 407 155 l 414 171 l 456 171 l 416 0 z"},"{":{"x_min":0,"x_max":428,"ha":428,"o":"m 232 -128 q 174 -128 144 -102 q 113 -76 113 -27 q 113 -17 114 -6 q 116 4 118 15 l 155 190 q 159 206 159 222 q 159 263 130 278 q 102 294 60 296 l 69 338 q 102 340 130 349 q 159 358 180 380 q 200 402 209 443 l 246 616 q 256 660 272 692 q 288 725 323 742 q 358 760 421 760 l 487 760 l 478 717 l 448 717 q 404 717 379 690 q 354 663 343 612 l 306 440 q 296 390 262 359 q 228 328 169 318 l 169 314 q 213 306 236 282 q 258 259 258 223 q 258 216 257 208 q 256 200 254 192 l 217 20 q 215 8 214 -2 q 212 -13 212 -22 q 212 -85 277 -85 l 307 -85 l 298 -128 z"},"9":{"x_min":0,"x_max":559,"ha":559,"o":"m 175 -10 q 121 -10 90 4 q 60 17 48 38 q 35 58 35 80 q 35 105 50 122 q 66 138 94 138 q 94 115 104 92 q 113 69 132 54 q 152 39 183 39 q 259 39 307 118 q 355 197 395 343 q 370 317 332 296 q 294 275 242 275 q 161 275 117 322 q 73 368 73 441 q 73 524 109 588 q 145 652 206 688 q 266 724 337 724 q 421 724 470 673 q 520 622 520 527 q 520 481 512 424 q 504 366 488 306 q 471 245 444 189 q 416 133 378 88 q 340 43 290 16 q 239 -10 175 -10 z m 267 330 q 316 331 352 358 q 388 384 411 415 q 418 441 422 476 q 427 511 427 533 q 427 606 400 638 q 374 669 334 669 q 299 669 270 649 q 240 629 218 596 q 197 563 185 522 q 173 480 173 438 q 173 385 198 358 q 224 330 267 330 z"}," ":{"x_min":0,"x_max":260,"ha":260,"o":""},"I":{"x_min":0,"x_max":367,"ha":367,"o":"m -21 0 l -13 42 l 0 42 q 34 42 61 54 q 88 67 98 114 l 202 604 q 206 620 206 632 q 206 658 186 665 q 166 672 134 672 l 121 672 l 130 714 l 421 714 l 412 672 l 399 672 q 365 672 338 660 q 312 647 302 600 l 198 110 q 194 94 194 82 q 194 56 214 49 q 234 42 266 42 l 279 42 l 270 0 z"},"H":{"x_min":0,"x_max":793,"ha":793,"o":"m -21 0 l -13 42 l 0 42 q 34 42 61 54 q 88 67 98 114 l 202 604 q 206 620 206 632 q 206 658 186 665 q 166 672 134 672 l 121 672 l 130 714 l 421 714 l 412 672 l 399 672 q 365 672 338 660 q 312 647 302 600 l 259 398 l 584 398 l 628 604 q 632 620 632 632 q 632 658 612 665 q 592 672 560 672 l 547 672 l 556 714 l 847 714 l 838 672 l 825 672 q 791 672 764 660 q 738 647 728 600 l 624 110 q 620 94 620 82 q 620 56 640 49 q 660 42 692 42 l 705 42 l 696 0 l 405 0 l 413 42 l 426 42 q 460 42 487 54 q 514 67 524 114 l 573 348 l 248 348 l 198 110 q 194 94 194 82 q 194 56 214 49 q 234 42 266 42 l 279 42 l 270 0 z"},"4":{"x_min":0,"x_max":559,"ha":559,"o":"m 128 0 l 136 42 l 180 42 q 214 42 241 54 q 268 67 278 114 l 295 196 l -14 196 l -5 237 l 405 714 l 501 714 l 403 252 l 526 252 l 514 196 l 391 196 l 373 110 q 369 94 369 82 q 369 56 390 49 q 410 42 441 42 l 464 42 l 455 0 z m 306 518 l 79 252 l 306 252 l 345 439 q 354 482 367 534 q 380 586 394 633 q 383 616 366 594 q 350 571 333 550 q 316 530 306 518 z"},"~":{"x_min":0,"x_max":559,"ha":559,"o":"m 54 269 q 57 298 63 328 q 69 359 82 386 q 95 412 118 428 q 140 444 176 444 q 210 444 238 427 q 266 410 301 378 q 322 358 342 343 q 362 328 383 328 q 411 328 424 358 q 437 388 444 444 l 504 444 q 501 418 494 388 q 488 358 475 331 q 462 304 440 286 q 417 269 382 269 q 347 269 318 287 q 290 305 262 332 q 239 354 219 370 q 199 385 176 385 q 147 385 132 356 q 118 328 113 269 z"},"D":{"x_min":0,"x_max":725,"ha":725,"o":"m -21 0 l -13 42 l 0 42 q 34 42 61 54 q 88 67 98 114 l 202 604 q 204 611 205 618 q 206 626 206 632 q 206 659 184 666 q 161 672 134 672 l 121 672 l 130 714 l 410 714 q 545 714 620 644 q 694 575 694 442 q 694 353 668 273 q 642 193 591 132 q 540 70 466 35 q 391 0 294 0 z m 185 51 l 272 51 q 370 51 440 102 q 511 154 548 244 q 585 335 585 453 q 585 562 534 613 q 482 664 395 664 l 316 664 z"},"^":{"x_min":0,"x_max":559,"ha":559,"o":"m 51 266 l 261 714 l 296 714 l 507 266 l 440 266 l 278 622 l 118 266 z"},"0":{"x_min":0,"x_max":559,"ha":559,"o":"m 233 -11 q 147 -11 94 50 q 40 112 40 231 q 40 293 52 362 q 63 430 86 494 q 110 559 146 611 q 181 663 230 694 q 278 725 340 725 q 393 725 436 701 q 479 677 504 626 q 530 576 530 496 q 530 435 519 366 q 508 297 485 230 q 462 164 427 109 q 392 54 344 22 q 295 -11 233 -11 z m 241 44 q 283 44 315 76 q 347 107 370 159 q 392 211 406 274 q 420 336 426 399 q 433 462 433 515 q 433 597 406 634 q 380 671 330 671 q 288 671 256 640 q 225 608 202 556 q 179 505 165 442 q 151 380 144 317 q 137 254 137 202 q 137 119 165 82 q 193 44 241 44 z"},"F":{"x_min":0,"x_max":590,"ha":590,"o":"m -21 0 l -13 42 l 0 42 q 33 42 60 54 q 86 65 97 109 l 202 604 q 206 620 206 632 q 206 658 186 665 q 166 672 134 672 l 121 672 l 130 714 l 634 714 l 602 539 l 550 539 q 552 556 554 574 q 555 593 555 597 q 555 626 538 645 q 522 664 480 664 l 316 664 l 254 375 l 495 375 l 485 326 l 244 326 l 199 114 q 196 100 196 89 q 196 58 216 50 q 236 42 265 42 l 298 42 l 290 0 z"},"`":{"x_min":0,"x_max":279,"ha":279,"o":"m 273 606 q 241 637 204 680 q 167 722 144 756 l 147 766 l 247 766 q 258 735 278 692 q 298 650 314 619 l 311 606 z"},"k":{"x_min":0,"x_max":569,"ha":569,"o":"m 515 -7 q 460 -6 426 3 q 392 12 371 34 q 350 56 334 96 l 269 256 l 178 198 l 137 0 l 44 0 l 174 618 q 178 638 180 652 q 183 666 183 671 q 183 701 162 710 q 142 718 113 718 l 105 718 l 114 760 l 298 760 l 259 576 q 253 549 244 505 q 234 461 222 411 q 211 361 200 317 q 189 273 181 247 l 340 385 q 380 420 396 440 q 413 460 413 474 q 413 487 404 490 q 394 494 369 494 l 378 536 l 599 536 l 590 494 q 556 494 517 470 q 478 445 429 401 l 338 317 l 429 119 q 446 82 469 58 q 492 35 531 35 l 522 -7 z"},"u":{"x_min":0,"x_max":599,"ha":599,"o":"m 456 -10 q 416 -10 394 18 q 372 46 372 85 q 372 96 374 112 q 375 128 377 144 l 369 144 q 341 98 314 64 q 287 30 254 10 q 221 -9 176 -9 q 117 -9 93 24 q 69 58 69 102 q 69 127 75 156 q 81 186 87 212 l 126 387 q 129 401 132 422 q 135 442 135 447 q 135 477 114 486 q 94 494 65 494 l 57 494 l 66 536 l 252 536 l 186 237 q 180 210 173 174 q 166 138 166 116 q 166 91 176 73 q 186 55 215 55 q 242 55 271 76 q 300 96 327 130 q 354 164 374 205 q 394 246 403 287 l 455 536 l 552 536 l 483 215 q 480 204 476 183 q 473 162 470 140 q 468 118 468 104 q 468 53 501 53 q 518 53 532 58 q 546 64 565 75 l 583 46 q 561 26 528 8 q 494 -10 456 -10 z"},"]":{"x_min":0,"x_max":360,"ha":360,"o":"m -47 -128 l -38 -86 l 5 -86 q 38 -86 64 -74 q 91 -61 101 -14 l 243 650 q 247 666 247 678 q 247 704 226 711 q 206 718 175 718 l 132 718 l 141 760 l 364 760 l 175 -128 z"},"U":{"x_min":0,"x_max":730,"ha":730,"o":"m 323 -10 q 214 -10 155 35 q 96 80 96 163 q 96 179 100 207 q 103 235 107 252 l 181 604 q 185 620 185 632 q 185 658 164 665 q 144 672 113 672 l 100 672 l 109 714 l 400 714 l 392 672 l 379 672 q 346 672 319 660 q 292 647 281 600 l 206 247 q 201 222 198 198 q 194 175 194 154 q 194 103 232 76 q 270 50 338 50 q 403 50 442 70 q 481 91 502 126 q 522 162 532 206 l 617 604 q 621 620 621 632 q 621 658 600 665 q 580 672 549 672 l 536 672 l 545 714 l 796 714 l 788 672 l 775 672 q 742 672 715 660 q 688 647 677 600 l 593 204 q 572 104 507 47 q 442 -10 323 -10 z"},"o":{"x_min":0,"x_max":574,"ha":574,"o":"m 235 -10 q 150 -10 96 42 q 43 93 43 197 q 43 252 61 313 q 79 374 116 427 q 153 480 209 513 q 265 546 341 546 q 394 546 437 525 q 480 504 506 458 q 531 412 531 339 q 531 296 520 248 q 509 201 486 155 q 463 109 428 72 q 393 35 344 12 q 296 -10 235 -10 z m 246 41 q 295 41 330 72 q 364 104 386 154 q 407 203 417 257 q 427 311 427 356 q 427 431 401 463 q 375 495 329 495 q 290 495 260 474 q 230 453 208 418 q 187 384 174 342 q 160 300 154 258 q 147 215 147 179 q 147 103 174 72 q 201 41 246 41 z"},"N":{"x_min":0,"x_max":763,"ha":763,"o":"m -20 0 l -11 42 l 2 42 q 35 42 62 54 q 88 67 98 114 l 202 604 q 206 620 206 632 q 206 658 186 665 q 166 672 134 672 l 121 672 l 130 714 l 312 714 l 554 162 l 648 604 q 652 620 652 632 q 652 658 632 665 q 612 672 580 672 l 567 672 l 576 714 l 827 714 l 818 672 l 805 672 q 771 672 744 660 q 718 647 708 600 l 581 0 l 516 0 l 259 586 l 158 110 q 154 94 154 82 q 154 56 174 49 q 194 42 226 42 l 239 42 l 230 0 z"},"+":{"x_min":0,"x_max":559,"ha":559,"o":"m 249 143 l 249 328 l 65 328 l 65 387 l 249 387 l 249 572 l 309 572 l 309 387 l 494 387 l 494 328 l 309 328 l 309 143 z"},"G":{"x_min":0,"x_max":714,"ha":714,"o":"m 336 -10 q 195 -10 124 62 q 52 134 52 258 q 52 355 83 440 q 114 524 171 588 q 228 652 307 688 q 386 724 482 724 q 588 724 640 692 q 693 660 693 616 q 693 577 662 557 q 630 537 587 537 q 587 596 557 634 q 527 671 461 671 q 397 671 342 636 q 288 601 247 541 q 206 481 184 404 q 161 327 161 242 q 161 156 206 102 q 250 47 354 47 q 382 47 413 51 q 444 55 467 61 l 500 220 q 504 236 504 248 q 504 274 482 281 q 461 288 432 288 l 423 288 l 432 330 l 698 330 l 689 288 l 685 288 q 657 288 634 276 q 610 263 600 216 l 562 36 q 507 13 454 2 q 400 -10 336 -10 z"},"q":{"x_min":0,"x_max":560,"ha":560,"o":"m 279 -240 l 321 -40 q 324 -23 330 5 q 337 33 344 64 q 352 94 358 118 q 363 142 365 151 l 359 151 q 340 110 314 73 q 288 36 253 13 q 218 -10 172 -10 q 114 -10 78 36 q 43 83 43 173 q 43 220 56 272 q 68 323 93 372 q 118 420 154 460 q 190 499 237 522 q 284 546 341 546 q 368 546 400 538 q 432 531 452 519 l 502 546 l 537 546 l 399 -106 q 396 -120 394 -133 q 393 -146 393 -151 q 393 -181 414 -190 q 434 -198 462 -198 l 470 -198 l 461 -240 z m 208 53 q 235 53 262 74 q 290 95 314 130 q 339 164 358 206 q 376 247 385 288 l 422 465 q 414 479 394 490 q 374 501 346 501 q 305 501 273 478 q 241 454 216 416 q 192 377 176 332 q 161 288 153 244 q 145 201 145 168 q 145 106 163 80 q 181 53 208 53 z"},"d":{"x_min":0,"x_max":579,"ha":579,"o":"m 172 -10 q 128 -10 99 14 q 70 38 56 80 q 43 121 43 173 q 43 220 56 272 q 68 323 93 372 q 118 420 154 460 q 190 499 237 522 q 284 546 341 546 q 370 546 395 539 q 420 532 440 521 q 442 534 445 552 q 448 569 450 578 l 460 626 q 463 640 465 652 q 467 665 467 671 q 467 701 446 710 q 426 718 397 718 l 389 718 l 398 760 l 582 760 l 466 215 q 464 204 460 183 q 456 162 454 140 q 451 118 451 104 q 451 53 484 53 q 500 53 518 60 q 537 68 556 79 l 574 50 q 560 37 536 23 q 512 9 485 0 q 458 -10 433 -10 q 397 -10 376 12 q 355 34 355 73 q 355 86 358 106 q 360 126 365 151 l 359 151 q 324 74 278 32 q 231 -10 172 -10 z m 208 53 q 234 53 262 73 q 289 93 314 127 q 338 161 357 203 q 376 245 385 288 l 422 465 q 411 483 390 492 q 369 501 346 501 q 306 501 274 478 q 242 456 218 419 q 194 382 178 338 q 161 294 153 250 q 145 205 145 169 q 145 107 163 80 q 181 53 208 53 z"},"1":{"x_min":0,"x_max":559,"ha":559,"o":"m 38 0 l 46 42 l 99 42 q 133 42 160 54 q 187 67 197 114 l 275 482 q 283 521 292 560 q 302 600 312 639 l 308 639 q 258 590 224 562 q 189 535 157 535 q 136 535 126 550 q 117 566 117 589 q 152 598 188 614 q 224 629 281 666 l 362 718 l 426 718 l 297 110 q 293 94 293 82 q 293 56 314 49 q 334 42 365 42 l 419 42 l 410 0 z"},"5":{"x_min":0,"x_max":559,"ha":559,"o":"m 183 -10 q 86 -10 47 20 q 8 49 8 90 q 8 118 26 135 q 44 152 83 152 q 84 126 93 102 q 102 77 126 61 q 149 45 192 45 q 268 45 316 93 q 363 141 363 236 q 363 304 326 338 q 290 372 235 372 q 197 372 172 365 q 147 358 126 350 l 92 357 l 199 714 l 533 714 l 506 563 l 464 563 q 465 576 466 590 q 467 604 467 610 q 467 620 458 627 q 448 634 421 634 l 227 634 l 161 411 q 178 416 200 422 q 223 427 257 427 q 353 427 410 380 q 467 332 467 243 q 467 171 433 114 q 399 56 336 23 q 272 -10 183 -10 z"}}}
